<svg id="visual" viewBox="0 0 900 600" width="900" height="600" xmlns="http://www.w3.org/2000/svg" xmlns:xlink="http://www.w3.org/1999/xlink" version="1.1"><rect x="0" y="0" width="900" height="600" fill="#ffffff"></rect><defs><linearGradient id="grad1_0" x1="33.3%" y1="0%" x2="100%" y2="100%"><stop offset="20%" stop-color="#4da8bd" stop-opacity="1"></stop><stop offset="80%" stop-color="#4da8bd" stop-opacity="1"></stop></linearGradient></defs><defs><linearGradient id="grad1_1" x1="33.3%" y1="0%" x2="100%" y2="100%"><stop offset="20%" stop-color="#4da8bd" stop-opacity="1"></stop><stop offset="80%" stop-color="#80bdcd" stop-opacity="1"></stop></linearGradient></defs><defs><linearGradient id="grad1_2" x1="33.3%" y1="0%" x2="100%" y2="100%"><stop offset="20%" stop-color="#acd3de" stop-opacity="1"></stop><stop offset="80%" stop-color="#80bdcd" stop-opacity="1"></stop></linearGradient></defs><defs><linearGradient id="grad1_3" x1="33.3%" y1="0%" x2="100%" y2="100%"><stop offset="20%" stop-color="#acd3de" stop-opacity="1"></stop><stop offset="80%" stop-color="#d6e9ee" stop-opacity="1"></stop></linearGradient></defs><defs><linearGradient id="grad1_4" x1="33.3%" y1="0%" x2="100%" y2="100%"><stop offset="20%" stop-color="#ffffff" stop-opacity="1"></stop><stop offset="80%" stop-color="#d6e9ee" stop-opacity="1"></stop></linearGradient></defs><defs><linearGradient id="grad2_0" x1="0%" y1="0%" x2="66.7%" y2="100%"><stop offset="20%" stop-color="#4da8bd" stop-opacity="1"></stop><stop offset="80%" stop-color="#4da8bd" stop-opacity="1"></stop></linearGradient></defs><defs><linearGradient id="grad2_1" x1="0%" y1="0%" x2="66.7%" y2="100%"><stop offset="20%" stop-color="#80bdcd" stop-opacity="1"></stop><stop offset="80%" stop-color="#4da8bd" stop-opacity="1"></stop></linearGradient></defs><defs><linearGradient id="grad2_2" x1="0%" y1="0%" x2="66.7%" y2="100%"><stop offset="20%" stop-color="#80bdcd" stop-opacity="1"></stop><stop offset="80%" stop-color="#acd3de" stop-opacity="1"></stop></linearGradient></defs><defs><linearGradient id="grad2_3" x1="0%" y1="0%" x2="66.7%" y2="100%"><stop offset="20%" stop-color="#d6e9ee" stop-opacity="1"></stop><stop offset="80%" stop-color="#acd3de" stop-opacity="1"></stop></linearGradient></defs><defs><linearGradient id="grad2_4" x1="0%" y1="0%" x2="66.7%" y2="100%"><stop offset="20%" stop-color="#d6e9ee" stop-opacity="1"></stop><stop offset="80%" stop-color="#ffffff" stop-opacity="1"></stop></linearGradient></defs><g transform="translate(900, 0)"><path d="M0 378.6C-62.6 363 -125.1 347.4 -183.5 317.8C-241.9 288.2 -296 244.6 -327.9 189.3C-359.7 134 -369.1 67 -378.6 0L0 0Z" fill="#ebf4f7"></path><path d="M0 302.9C-50.1 290.4 -100.1 277.9 -146.8 254.3C-193.5 230.6 -236.8 195.7 -262.3 151.4C-287.7 107.2 -295.3 53.6 -302.9 0L0 0Z" fill="#c1dee6"></path><path d="M0 227.1C-37.5 217.8 -75.1 208.5 -110.1 190.7C-145.1 172.9 -177.6 146.8 -196.7 113.6C-215.8 80.4 -221.5 40.2 -227.1 0L0 0Z" fill="#97c8d5"></path><path d="M0 151.4C-25 145.2 -50.1 139 -73.4 127.1C-96.7 115.3 -118.4 97.8 -131.1 75.7C-143.9 53.6 -147.7 26.8 -151.4 0L0 0Z" fill="#68b3c5"></path><path d="M0 75.7C-12.5 72.6 -25 69.5 -36.7 63.6C-48.4 57.6 -59.2 48.9 -65.6 37.9C-71.9 26.8 -73.8 13.4 -75.7 0L0 0Z" fill="#4da8bd"></path></g><g transform="translate(0, 600)"><path d="M0 -378.6C64.7 -366.7 129.4 -354.8 187.5 -324.8C245.6 -294.7 297.1 -246.4 327.9 -189.3C358.6 -132.1 368.6 -66.1 378.6 0L0 0Z" fill="#ebf4f7"></path><path d="M0 -302.9C51.8 -293.4 103.5 -283.9 150 -259.8C196.5 -235.8 237.7 -197.2 262.3 -151.4C286.9 -105.7 294.9 -52.9 302.9 0L0 0Z" fill="#c1dee6"></path><path d="M0 -227.1C38.8 -220 77.6 -212.9 112.5 -194.9C147.4 -176.8 178.3 -147.9 196.7 -113.6C215.2 -79.3 221.2 -39.6 227.1 0L0 0Z" fill="#97c8d5"></path><path d="M0 -151.4C25.9 -146.7 51.8 -141.9 75 -129.9C98.2 -117.9 118.8 -98.6 131.1 -75.7C143.4 -52.9 147.4 -26.4 151.4 0L0 0Z" fill="#68b3c5"></path><path d="M0 -75.7C12.9 -73.3 25.9 -71 37.5 -65C49.1 -58.9 59.4 -49.3 65.6 -37.9C71.7 -26.4 73.7 -13.2 75.7 0L0 0Z" fill="#4da8bd"></path></g></svg>