<svg id="visual" viewBox="0 0 2556 1440" width="2556" height="1440" xmlns="http://www.w3.org/2000/svg" xmlns:xlink="http://www.w3.org/1999/xlink" version="1.1"><rect x="0" y="0" width="2556" height="1440" fill="#f9f9f9"></rect><defs><linearGradient id="grad1_0" x1="43.7%" y1="100%" x2="100%" y2="0%"><stop offset="14.500000000000002%" stop-color="#cccccc" stop-opacity="1"></stop><stop offset="85.5%" stop-color="#cccccc" stop-opacity="1"></stop></linearGradient></defs><defs><linearGradient id="grad1_1" x1="43.7%" y1="100%" x2="100%" y2="0%"><stop offset="14.500000000000002%" stop-color="#cccccc" stop-opacity="1"></stop><stop offset="85.5%" stop-color="#d2d2d2" stop-opacity="1"></stop></linearGradient></defs><defs><linearGradient id="grad1_2" x1="43.7%" y1="100%" x2="100%" y2="0%"><stop offset="14.500000000000002%" stop-color="#d9d9d9" stop-opacity="1"></stop><stop offset="85.5%" stop-color="#d2d2d2" stop-opacity="1"></stop></linearGradient></defs><defs><linearGradient id="grad1_3" x1="43.7%" y1="100%" x2="100%" y2="0%"><stop offset="14.500000000000002%" stop-color="#d9d9d9" stop-opacity="1"></stop><stop offset="85.5%" stop-color="#dfdfdf" stop-opacity="1"></stop></linearGradient></defs><defs><linearGradient id="grad1_4" x1="43.7%" y1="100%" x2="100%" y2="0%"><stop offset="14.500000000000002%" stop-color="#e6e6e6" stop-opacity="1"></stop><stop offset="85.5%" stop-color="#dfdfdf" stop-opacity="1"></stop></linearGradient></defs><defs><linearGradient id="grad1_5" x1="43.7%" y1="100%" x2="100%" y2="0%"><stop offset="14.500000000000002%" stop-color="#e6e6e6" stop-opacity="1"></stop><stop offset="85.5%" stop-color="#ececec" stop-opacity="1"></stop></linearGradient></defs><defs><linearGradient id="grad1_6" x1="43.7%" y1="100%" x2="100%" y2="0%"><stop offset="14.500000000000002%" stop-color="#f2f2f2" stop-opacity="1"></stop><stop offset="85.5%" stop-color="#ececec" stop-opacity="1"></stop></linearGradient></defs><defs><linearGradient id="grad1_7" x1="43.7%" y1="100%" x2="100%" y2="0%"><stop offset="14.500000000000002%" stop-color="#f2f2f2" stop-opacity="1"></stop><stop offset="85.5%" stop-color="#f9f9f9" stop-opacity="1"></stop></linearGradient></defs><defs><linearGradient id="grad2_0" x1="0%" y1="100%" x2="56.3%" y2="0%"><stop offset="14.500000000000002%" stop-color="#cccccc" stop-opacity="1"></stop><stop offset="85.5%" stop-color="#cccccc" stop-opacity="1"></stop></linearGradient></defs><defs><linearGradient id="grad2_1" x1="0%" y1="100%" x2="56.3%" y2="0%"><stop offset="14.500000000000002%" stop-color="#d2d2d2" stop-opacity="1"></stop><stop offset="85.5%" stop-color="#cccccc" stop-opacity="1"></stop></linearGradient></defs><defs><linearGradient id="grad2_2" x1="0%" y1="100%" x2="56.3%" y2="0%"><stop offset="14.500000000000002%" stop-color="#d2d2d2" stop-opacity="1"></stop><stop offset="85.5%" stop-color="#d9d9d9" stop-opacity="1"></stop></linearGradient></defs><defs><linearGradient id="grad2_3" x1="0%" y1="100%" x2="56.3%" y2="0%"><stop offset="14.500000000000002%" stop-color="#dfdfdf" stop-opacity="1"></stop><stop offset="85.5%" stop-color="#d9d9d9" stop-opacity="1"></stop></linearGradient></defs><defs><linearGradient id="grad2_4" x1="0%" y1="100%" x2="56.3%" y2="0%"><stop offset="14.500000000000002%" stop-color="#dfdfdf" stop-opacity="1"></stop><stop offset="85.5%" stop-color="#e6e6e6" stop-opacity="1"></stop></linearGradient></defs><defs><linearGradient id="grad2_5" x1="0%" y1="100%" x2="56.3%" y2="0%"><stop offset="14.500000000000002%" stop-color="#ececec" stop-opacity="1"></stop><stop offset="85.5%" stop-color="#e6e6e6" stop-opacity="1"></stop></linearGradient></defs><defs><linearGradient id="grad2_6" x1="0%" y1="100%" x2="56.3%" y2="0%"><stop offset="14.500000000000002%" stop-color="#ececec" stop-opacity="1"></stop><stop offset="85.5%" stop-color="#f2f2f2" stop-opacity="1"></stop></linearGradient></defs><defs><linearGradient id="grad2_7" x1="0%" y1="100%" x2="56.3%" y2="0%"><stop offset="14.500000000000002%" stop-color="#f9f9f9" stop-opacity="1"></stop><stop offset="85.5%" stop-color="#f2f2f2" stop-opacity="1"></stop></linearGradient></defs><g transform="translate(2556, 1440)"><path d="M-1203 0C-1180.5 -214.8 -1158.1 -429.6 -1060 -612C-961.9 -794.4 -788.3 -944.2 -599 -1037.5C-409.7 -1130.8 -204.9 -1167.4 0 -1204L0 0Z" fill="#f6f6f6"></path><path d="M-1052.6 0C-1033 -188 -1013.3 -375.9 -927.5 -535.5C-841.7 -695.1 -689.7 -826.2 -524.1 -907.8C-358.5 -989.4 -179.3 -1021.5 0 -1053.5L0 0Z" fill="#efefef"></path><path d="M-902.2 0C-885.4 -161.1 -868.6 -322.2 -795 -459C-721.5 -595.8 -591.2 -708.2 -449.3 -778.1C-307.3 -848.1 -153.6 -875.5 0 -903L0 0Z" fill="#e9e9e9"></path><path d="M-751.9 0C-737.8 -134.3 -723.8 -268.5 -662.5 -382.5C-601.2 -496.5 -492.7 -590.2 -374.4 -648.4C-256.1 -706.7 -128 -729.6 0 -752.5L0 0Z" fill="#e2e2e2"></path><path d="M-601.5 0C-590.3 -107.4 -579 -214.8 -530 -306C-481 -397.2 -394.1 -472.1 -299.5 -518.7C-204.9 -565.4 -102.4 -583.7 0 -602L0 0Z" fill="#dcdcdc"></path><path d="M-451.1 0C-442.7 -80.6 -434.3 -161.1 -397.5 -229.5C-360.7 -297.9 -295.6 -354.1 -224.6 -389.1C-153.6 -424 -76.8 -437.8 0 -451.5L0 0Z" fill="#d5d5d5"></path><path d="M-300.7 0C-295.1 -53.7 -289.5 -107.4 -265 -153C-240.5 -198.6 -197.1 -236.1 -149.8 -259.4C-102.4 -282.7 -51.2 -291.8 0 -301L0 0Z" fill="#cfcfcf"></path><path d="M-150.4 0C-147.6 -26.9 -144.8 -53.7 -132.5 -76.5C-120.2 -99.3 -98.5 -118 -74.9 -129.7C-51.2 -141.3 -25.6 -145.9 0 -150.5L0 0Z" fill="#cccccc"></path></g><g transform="translate(0, 0)"><path d="M1218 0C1163.7 199.3 1109.3 398.6 1014.1 585.5C918.9 772.4 782.8 947 607 1051.4C431.2 1155.7 215.6 1189.9 0 1224L0 0Z" fill="#f6f6f6"></path><path d="M1065.8 0C1018.2 174.4 970.7 348.8 887.4 512.3C804 675.9 685 828.6 531.1 919.9C377.3 1011.2 188.6 1041.1 0 1071L0 0Z" fill="#efefef"></path><path d="M913.5 0C872.7 149.5 832 298.9 760.6 439.1C689.2 579.3 587.1 710.2 455.3 788.5C323.4 866.8 161.7 892.4 0 918L0 0Z" fill="#e9e9e9"></path><path d="M761.3 0C727.3 124.6 693.3 249.1 633.8 365.9C574.3 482.8 489.3 591.9 379.4 657.1C269.5 722.3 134.7 743.7 0 765L0 0Z" fill="#e2e2e2"></path><path d="M609 0C581.8 99.6 554.7 199.3 507.1 292.7C459.5 386.2 391.4 473.5 303.5 525.7C215.6 577.9 107.8 594.9 0 612L0 0Z" fill="#dcdcdc"></path><path d="M456.8 0C436.4 74.7 416 149.5 380.3 219.6C344.6 289.7 293.6 355.1 227.6 394.3C161.7 433.4 80.8 446.2 0 459L0 0Z" fill="#d5d5d5"></path><path d="M304.5 0C290.9 49.8 277.3 99.6 253.5 146.4C229.7 193.1 195.7 236.7 151.8 262.8C107.8 288.9 53.9 297.5 0 306L0 0Z" fill="#cfcfcf"></path><path d="M152.3 0C145.5 24.9 138.7 49.8 126.8 73.2C114.9 96.6 97.9 118.4 75.9 131.4C53.9 144.5 26.9 148.7 0 153L0 0Z" fill="#cccccc"></path></g></svg>