<svg xmlns="http://www.w3.org/2000/svg" version="1.1" xmlns:xlink="http://www.w3.org/1999/xlink" xmlns:svgjs="http://svgjs.com/svgjs" width="1440" height="560" preserveAspectRatio="none" viewBox="0 0 1440 560"><g mask="url(&quot;#SvgjsMask1035&quot;)" fill="none"><rect width="1440" height="560" x="0" y="0" fill="rgba(77, 168, 189, 1)"></rect><path d="M0,458.246C86.268,453.766,164.764,416.119,238.461,371.052C313.577,325.117,379.572,268.785,428.99,195.913C485.661,112.346,562.323,21.035,543.039,-78.077C523.726,-177.335,399.048,-212.008,334.478,-289.827C267.884,-370.086,255.582,-502.04,158.873,-541.073C62.285,-580.058,-39.436,-502.673,-141.512,-481.944C-255.341,-458.829,-400.33,-500.575,-475.712,-412.207C-551.189,-323.727,-479.873,-186.414,-492.257,-70.776C-504.03,39.157,-596.642,151.035,-546.59,249.619C-496.281,348.709,-358.751,357.046,-254.927,396.674C-171.567,428.492,-89.106,462.873,0,458.246" fill="#2f6f7e"></path><path d="M1440 997.887C1519.515 1016.7090000000001 1597.209 954.957 1661.029 903.929 1720.682 856.233 1755.529 788.046 1788.568 719.185 1822.2069999999999 649.074 1857.424 578.096 1854.6480000000001 500.383 1851.699 417.81100000000004 1828.1309999999999 332.98199999999997 1772.588 271.811 1717.54 211.18599999999998 1635.055 184.863 1554.55 169.878 1479.5720000000001 155.92200000000003 1398.61 153.88 1331.26 189.66500000000002 1268.443 223.041 1251.375 302.435 1204.451 355.89599999999996 1157.1019999999999 409.841 1067.531 433.976 1054.815 504.619 1042.135 575.067 1101.449 637.434 1143.325 695.487 1178.815 744.687 1234.855 769.8 1277.34 813.105 1335.995 872.892 1358.497 978.594 1440 997.887" fill="#91c9d6"></path></g><defs><mask id="SvgjsMask1035"><rect width="1440" height="560" fill="#ffffff"></rect></mask></defs></svg>