<svg id="visual" viewBox="0 0 2560 1440" width="2560" height="1440" xmlns="http://www.w3.org/2000/svg" xmlns:xlink="http://www.w3.org/1999/xlink" version="1.1"><rect x="0" y="0" width="2560" height="1440" fill="#a7c8cf"></rect><path d="M0 655L61 649.7C122 644.3 244 633.7 365.8 638.3C487.7 643 609.3 663 731.2 685.3C853 707.7 975 732.3 1097 748.3C1219 764.3 1341 771.7 1463 724.8C1585 678 1707 577 1828.8 543.8C1950.7 510.7 2072.3 545.3 2194.2 554.5C2316 563.7 2438 547.3 2499 539.2L2560 531L2560 1441L2499 1441C2438 1441 2316 1441 2194.2 1441C2072.3 1441 1950.7 1441 1828.8 1441C1707 1441 1585 1441 1463 1441C1341 1441 1219 1441 1097 1441C975 1441 853 1441 731.2 1441C609.3 1441 487.7 1441 365.8 1441C244 1441 122 1441 61 1441L0 1441Z" fill="#4da8bd"></path><path d="M0 834L61 847C122 860 244 886 365.8 890.3C487.7 894.7 609.3 877.3 731.2 824.3C853 771.3 975 682.7 1097 659.8C1219 637 1341 680 1463 723.3C1585 766.7 1707 810.3 1828.8 824.5C1950.7 838.7 2072.3 823.3 2194.2 786.7C2316 750 2438 692 2499 663L2560 634L2560 1441L2499 1441C2438 1441 2316 1441 2194.2 1441C2072.3 1441 1950.7 1441 1828.8 1441C1707 1441 1585 1441 1463 1441C1341 1441 1219 1441 1097 1441C975 1441 853 1441 731.2 1441C609.3 1441 487.7 1441 365.8 1441C244 1441 122 1441 61 1441L0 1441Z" fill="#449fb4"></path><path d="M0 848L61 850.8C122 853.7 244 859.3 365.8 878.7C487.7 898 609.3 931 731.2 924C853 917 975 870 1097 835C1219 800 1341 777 1463 814.3C1585 851.7 1707 949.3 1828.8 968.8C1950.7 988.3 2072.3 929.7 2194.2 903.2C2316 876.7 2438 882.3 2499 885.2L2560 888L2560 1441L2499 1441C2438 1441 2316 1441 2194.2 1441C2072.3 1441 1950.7 1441 1828.8 1441C1707 1441 1585 1441 1463 1441C1341 1441 1219 1441 1097 1441C975 1441 853 1441 731.2 1441C609.3 1441 487.7 1441 365.8 1441C244 1441 122 1441 61 1441L0 1441Z" fill="#3b96ab"></path><path d="M0 944L61 943.7C122 943.3 244 942.7 365.8 951.3C487.7 960 609.3 978 731.2 1019C853 1060 975 1124 1097 1149C1219 1174 1341 1160 1463 1126.7C1585 1093.3 1707 1040.7 1828.8 1018.5C1950.7 996.3 2072.3 1004.7 2194.2 997C2316 989.3 2438 965.7 2499 953.8L2560 942L2560 1441L2499 1441C2438 1441 2316 1441 2194.2 1441C2072.3 1441 1950.7 1441 1828.8 1441C1707 1441 1585 1441 1463 1441C1341 1441 1219 1441 1097 1441C975 1441 853 1441 731.2 1441C609.3 1441 487.7 1441 365.8 1441C244 1441 122 1441 61 1441L0 1441Z" fill="#328da2"></path><path d="M0 1211L61 1219.5C122 1228 244 1245 365.8 1261.8C487.7 1278.7 609.3 1295.3 731.2 1293C853 1290.7 975 1269.3 1097 1263C1219 1256.7 1341 1265.3 1463 1264.8C1585 1264.3 1707 1254.7 1828.8 1234.2C1950.7 1213.7 2072.3 1182.3 2194.2 1164.8C2316 1147.3 2438 1143.7 2499 1141.8L2560 1140L2560 1441L2499 1441C2438 1441 2316 1441 2194.2 1441C2072.3 1441 1950.7 1441 1828.8 1441C1707 1441 1585 1441 1463 1441C1341 1441 1219 1441 1097 1441C975 1441 853 1441 731.2 1441C609.3 1441 487.7 1441 365.8 1441C244 1441 122 1441 61 1441L0 1441Z" fill="#28859a"></path></svg>