<svg id="visual" viewBox="0 0 900 600" width="900" height="600" xmlns="http://www.w3.org/2000/svg" xmlns:xlink="http://www.w3.org/1999/xlink" version="1.1"><path d="M0 265L21.5 252.8C43 240.7 86 216.3 128.8 188.8C171.7 161.3 214.3 130.7 257.2 138.2C300 145.7 343 191.3 385.8 215C428.7 238.7 471.3 240.3 514.2 226.3C557 212.3 600 182.7 642.8 160.2C685.7 137.7 728.3 122.3 771.2 126.2C814 130 857 153 878.5 164.5L900 176L900 601L878.5 601C857 601 814 601 771.2 601C728.3 601 685.7 601 642.8 601C600 601 557 601 514.2 601C471.3 601 428.7 601 385.8 601C343 601 300 601 257.2 601C214.3 601 171.7 601 128.8 601C86 601 43 601 21.5 601L0 601Z" fill="#95c0ca"></path><path d="M0 165L21.5 165.7C43 166.3 86 167.7 128.8 191.7C171.7 215.7 214.3 262.3 257.2 264.2C300 266 343 223 385.8 217.8C428.7 212.7 471.3 245.3 514.2 264.7C557 284 600 290 642.8 274.3C685.7 258.7 728.3 221.3 771.2 209.3C814 197.3 857 210.7 878.5 217.3L900 224L900 601L878.5 601C857 601 814 601 771.2 601C728.3 601 685.7 601 642.8 601C600 601 557 601 514.2 601C471.3 601 428.7 601 385.8 601C343 601 300 601 257.2 601C214.3 601 171.7 601 128.8 601C86 601 43 601 21.5 601L0 601Z" fill="#8abcc8"></path><path d="M0 331L21.5 334.3C43 337.7 86 344.3 128.8 348.2C171.7 352 214.3 353 257.2 354.3C300 355.7 343 357.3 385.8 350.8C428.7 344.3 471.3 329.7 514.2 307.5C557 285.3 600 255.7 642.8 247.2C685.7 238.7 728.3 251.3 771.2 252.3C814 253.3 857 242.7 878.5 237.3L900 232L900 601L878.5 601C857 601 814 601 771.2 601C728.3 601 685.7 601 642.8 601C600 601 557 601 514.2 601C471.3 601 428.7 601 385.8 601C343 601 300 601 257.2 601C214.3 601 171.7 601 128.8 601C86 601 43 601 21.5 601L0 601Z" fill="#7fb8c5"></path><path d="M0 343L21.5 347.8C43 352.7 86 362.3 128.8 358.5C171.7 354.7 214.3 337.3 257.2 339.5C300 341.7 343 363.3 385.8 374.5C428.7 385.7 471.3 386.3 514.2 382.3C557 378.3 600 369.7 642.8 359.2C685.7 348.7 728.3 336.3 771.2 345C814 353.7 857 383.3 878.5 398.2L900 413L900 601L878.5 601C857 601 814 601 771.2 601C728.3 601 685.7 601 642.8 601C600 601 557 601 514.2 601C471.3 601 428.7 601 385.8 601C343 601 300 601 257.2 601C214.3 601 171.7 601 128.8 601C86 601 43 601 21.5 601L0 601Z" fill="#74b4c3"></path><path d="M0 448L21.5 449.8C43 451.7 86 455.3 128.8 447C171.7 438.7 214.3 418.3 257.2 404.8C300 391.3 343 384.7 385.8 395.7C428.7 406.7 471.3 435.3 514.2 437.2C557 439 600 414 642.8 401.8C685.7 389.7 728.3 390.3 771.2 396.8C814 403.3 857 415.7 878.5 421.8L900 428L900 601L878.5 601C857 601 814 601 771.2 601C728.3 601 685.7 601 642.8 601C600 601 557 601 514.2 601C471.3 601 428.7 601 385.8 601C343 601 300 601 257.2 601C214.3 601 171.7 601 128.8 601C86 601 43 601 21.5 601L0 601Z" fill="#68b0c1"></path><path d="M0 480L21.5 471.2C43 462.3 86 444.7 128.8 440.5C171.7 436.3 214.3 445.7 257.2 450.3C300 455 343 455 385.8 450.3C428.7 445.7 471.3 436.3 514.2 434C557 431.7 600 436.3 642.8 447.8C685.7 459.3 728.3 477.7 771.2 484.3C814 491 857 486 878.5 483.5L900 481L900 601L878.5 601C857 601 814 601 771.2 601C728.3 601 685.7 601 642.8 601C600 601 557 601 514.2 601C471.3 601 428.7 601 385.8 601C343 601 300 601 257.2 601C214.3 601 171.7 601 128.8 601C86 601 43 601 21.5 601L0 601Z" fill="#5bacbf"></path><path d="M0 503L21.5 510C43 517 86 531 128.8 529.7C171.7 528.3 214.3 511.7 257.2 505.7C300 499.7 343 504.3 385.8 510.8C428.7 517.3 471.3 525.7 514.2 529.7C557 533.7 600 533.3 642.8 535.2C685.7 537 728.3 541 771.2 537.8C814 534.7 857 524.3 878.5 519.2L900 514L900 601L878.5 601C857 601 814 601 771.2 601C728.3 601 685.7 601 642.8 601C600 601 557 601 514.2 601C471.3 601 428.7 601 385.8 601C343 601 300 601 257.2 601C214.3 601 171.7 601 128.8 601C86 601 43 601 21.5 601L0 601Z" fill="#4da8bd"></path></svg>