<svg id="visual" viewBox="0 0 900 600" width="900" height="600" xmlns="http://www.w3.org/2000/svg" xmlns:xlink="http://www.w3.org/1999/xlink" version="1.1"><rect x="0" y="0" width="900" height="600" fill="#ffffff"></rect><defs><linearGradient id="grad1_0" x1="33.3%" y1="100%" x2="100%" y2="0%"><stop offset="20%" stop-color="#4da8bd" stop-opacity="1"></stop><stop offset="80%" stop-color="#4da8bd" stop-opacity="1"></stop></linearGradient></defs><defs><linearGradient id="grad1_1" x1="33.3%" y1="100%" x2="100%" y2="0%"><stop offset="20%" stop-color="#4da8bd" stop-opacity="1"></stop><stop offset="80%" stop-color="#80bdcd" stop-opacity="1"></stop></linearGradient></defs><defs><linearGradient id="grad1_2" x1="33.3%" y1="100%" x2="100%" y2="0%"><stop offset="20%" stop-color="#acd3de" stop-opacity="1"></stop><stop offset="80%" stop-color="#80bdcd" stop-opacity="1"></stop></linearGradient></defs><defs><linearGradient id="grad1_3" x1="33.3%" y1="100%" x2="100%" y2="0%"><stop offset="20%" stop-color="#acd3de" stop-opacity="1"></stop><stop offset="80%" stop-color="#d6e9ee" stop-opacity="1"></stop></linearGradient></defs><defs><linearGradient id="grad1_4" x1="33.3%" y1="100%" x2="100%" y2="0%"><stop offset="20%" stop-color="#ffffff" stop-opacity="1"></stop><stop offset="80%" stop-color="#d6e9ee" stop-opacity="1"></stop></linearGradient></defs><defs><linearGradient id="grad2_0" x1="0%" y1="100%" x2="66.7%" y2="0%"><stop offset="20%" stop-color="#4da8bd" stop-opacity="1"></stop><stop offset="80%" stop-color="#4da8bd" stop-opacity="1"></stop></linearGradient></defs><defs><linearGradient id="grad2_1" x1="0%" y1="100%" x2="66.7%" y2="0%"><stop offset="20%" stop-color="#80bdcd" stop-opacity="1"></stop><stop offset="80%" stop-color="#4da8bd" stop-opacity="1"></stop></linearGradient></defs><defs><linearGradient id="grad2_2" x1="0%" y1="100%" x2="66.7%" y2="0%"><stop offset="20%" stop-color="#80bdcd" stop-opacity="1"></stop><stop offset="80%" stop-color="#acd3de" stop-opacity="1"></stop></linearGradient></defs><defs><linearGradient id="grad2_3" x1="0%" y1="100%" x2="66.7%" y2="0%"><stop offset="20%" stop-color="#d6e9ee" stop-opacity="1"></stop><stop offset="80%" stop-color="#acd3de" stop-opacity="1"></stop></linearGradient></defs><defs><linearGradient id="grad2_4" x1="0%" y1="100%" x2="66.7%" y2="0%"><stop offset="20%" stop-color="#d6e9ee" stop-opacity="1"></stop><stop offset="80%" stop-color="#ffffff" stop-opacity="1"></stop></linearGradient></defs><g transform="translate(900, 600)"><path d="M-432.7 0C-378.6 -50.6 -324.6 -101.2 -295.3 -170.5C-266 -239.8 -261.4 -327.9 -216.3 -374.7C-171.2 -421.5 -85.6 -427.1 0 -432.7L0 0Z" fill="#ebf4f7"></path><path d="M-346.1 0C-302.9 -40.5 -259.7 -80.9 -236.3 -136.4C-212.8 -191.9 -209.1 -262.3 -173.1 -299.8C-137 -337.2 -68.5 -341.7 0 -346.1L0 0Z" fill="#c1dee6"></path><path d="M-259.6 0C-227.2 -30.4 -194.8 -60.7 -177.2 -102.3C-159.6 -143.9 -156.9 -196.7 -129.8 -224.8C-102.7 -252.9 -51.4 -256.3 0 -259.6L0 0Z" fill="#97c8d5"></path><path d="M-173.1 0C-151.5 -20.2 -129.8 -40.5 -118.1 -68.2C-106.4 -95.9 -104.6 -131.2 -86.5 -149.9C-68.5 -168.6 -34.2 -170.8 0 -173.1L0 0Z" fill="#68b3c5"></path><path d="M-86.5 0C-75.7 -10.1 -64.9 -20.2 -59.1 -34.1C-53.2 -48 -52.3 -65.6 -43.3 -74.9C-34.2 -84.3 -17.1 -85.4 0 -86.5L0 0Z" fill="#4da8bd"></path></g><g transform="translate(0, 0)"><path d="M432.7 0C421.2 75.5 409.8 150.9 374.7 216.3C339.6 281.8 280.9 337.1 214.5 371.5C148.1 405.9 74.1 419.3 0 432.7L0 0Z" fill="#ebf4f7"></path><path d="M346.1 0C337 60.4 327.8 120.7 299.8 173.1C271.7 225.4 224.7 269.7 171.6 297.2C118.5 324.7 59.2 335.4 0 346.1L0 0Z" fill="#c1dee6"></path><path d="M259.6 0C252.7 45.3 245.9 90.5 224.8 129.8C203.8 169.1 168.5 202.3 128.7 222.9C88.9 243.5 44.4 251.6 0 259.6L0 0Z" fill="#97c8d5"></path><path d="M173.1 0C168.5 30.2 163.9 60.4 149.9 86.5C135.8 112.7 112.4 134.9 85.8 148.6C59.2 162.4 29.6 167.7 0 173.1L0 0Z" fill="#68b3c5"></path><path d="M86.5 0C84.2 15.1 82 30.2 74.9 43.3C67.9 56.4 56.2 67.4 42.9 74.3C29.6 81.2 14.8 83.9 0 86.5L0 0Z" fill="#4da8bd"></path></g></svg>